<svg xmlns="http://www.w3.org/2000/svg" xmlns:xlink="http://www.w3.org/1999/xlink" viewBox="0 0 1920 294.37"><defs><style>.cls-1{fill:#fcce45;}.cls-2{fill:url(#Dégradé_sans_nom_4);}.cls-3{fill:#00b3eb;}</style><linearGradient id="Dégradé_sans_nom_4" x1="244.82" y1="176.2" x2="951.33" y2="176.2" gradientUnits="userSpaceOnUse"><stop offset="0" stop-color="#fcce45"/><stop offset="1" stop-color="#00b3eb"/></linearGradient></defs><g id="Calque_2" data-name="Calque 2"><g id="Calque_1-2" data-name="Calque 1"><path class="cls-1" d="M48.29,58V169.85q0,39.81,17.57,59.3c11.72,13,23.31,19.48,44.48,19.48,20.9,0,32.76-6.49,44.47-19.48s17.58-32.76,17.58-59.3V58h48.29V169.85q0,61.41-31.77,93c-21.18,21-43.84,31.55-78.57,31.55-34.45,0-58.1-10.51-79-31.55S0,210.79,0,169.85V58Z"/><path class="cls-2" d="M951.33,176.2h0A20.33,20.33,0,0,1,931,196.53H265.15a20.33,20.33,0,0,1-20.33-20.33h0a20.33,20.33,0,0,1,20.33-20.33H931A20.33,20.33,0,0,1,951.33,176.2Z"/><path class="cls-3" d="M1166.07,79q29.65,23.94,36.86,65h-51.26q-4.23-22-20.54-34.52T1090.26,97q-28,0-46.59,19.7T1025,174.51q0,38.12,18.64,58t46.59,19.91q24.56,0,40.87-12.71T1151.67,205h51.26q-7.22,41.1-36.86,65.23t-75,24.14q-33.9,0-59.94-14.4T990.3,238.46q-14.84-27.09-14.83-64,0-36.42,14.83-63.54t40.87-41.51q26.05-14.38,59.94-14.4Q1136.43,55.06,1166.07,79Z"/><path class="cls-3" d="M1275.35,0V291.41h-48.28V0Z"/><path class="cls-3" d="M1479.08,69.46A103.49,103.49,0,0,1,1521.44,111q15.24,27.12,15.24,63.54,0,36.84-15.24,64A103.37,103.37,0,0,1,1479.08,280q-27.12,14.4-61,14.4T1357.31,280A104.65,104.65,0,0,1,1315,238.25q-15.46-27.31-15.46-63.74T1315,111a105.14,105.14,0,0,1,42.36-41.51q26.89-14.38,60.78-14.4T1479.08,69.46Zm-95.3,36q-15.67,8.48-25.2,26.05t-9.53,43q0,25.83,9.53,43.2t25.2,25.84a73.73,73.73,0,0,0,68.62,0q15.66-8.48,25.2-25.84t9.53-43.2q0-25.42-9.53-43t-25.2-26.05a73.65,73.65,0,0,0-68.62,0Z"/><path class="cls-3" d="M1675.61,249.48v41.93H1646q-37.28,0-56.55-18t-19.26-59.93V99.11h-33.47V58h33.47V0h48.7V58h56.34V99.11h-56.34V214.32q0,19.92,7.42,27.53t26,7.63Z"/><path class="cls-3" d="M1895.44,80.47q24.55,26.28,24.56,75v136h-48.29V160.53q0-31.34-16.09-48.5t-44.06-17.15q-28.8,0-46.16,18.42t-17.37,54v124.1h-48.28V0h46.94l0,76.24c10-9,29.82-22,68.33-22S1879.05,63,1895.44,80.47Z"/></g></g></svg>